<svg xmlns="http://www.w3.org/2000/svg" version="1.1" xmlns:xlink="http://www.w3.org/1999/xlink" viewBox="0 0 200 200"><rect width="200" height="200" fill="url('#gradient')"></rect><defs><linearGradient id="gradient" gradientTransform="rotate(45 0.5 0.5)"><stop offset="0%" stop-color="#fa7439"></stop><stop offset="100%" stop-color="#eb2e40"></stop></linearGradient></defs><g><g fill="#f9de4c" transform="matrix(7.364525252525253,0,0,7.364525252525253,3.115490038910295,152.36115039521036)" stroke="#423fd1" stroke-width="0.2"><path d="M9.89-8.57L9.89-6.03L4.50-6.03L4.50-2.64L10.87-2.64L10.87 0L1.07 0L1.07-14.22L10.89-14.22L10.89-11.57L4.50-11.57L4.50-8.57L9.89-8.57ZM19.37-10.57L21.03-4.34L22.09-10.57L25.24-10.57L22.75 0L19.97 0L18.22-6.27L16.46 0L13.68 0L11.19-10.57L14.35-10.57L15.39-4.19L17.07-10.57L19.37-10.57Z"></path></g></g></svg>